<svg width="10" height="20" viewBox="0 0 10 20" fill="none" xmlns="http://www.w3.org/2000/svg">
<path d="M5.55301 19.7704C5.55324 19.7701 5.55352 19.7699 5.55375 19.7697L9.61625 15.6875C9.92059 15.3817 9.91946 14.887 9.6136 14.5826C9.30778 14.2782 8.81313 14.2794 8.50875 14.5852L5.78125 17.326L5.78125 0.780762C5.78125 0.349277 5.43149 -0.000488474 5 -0.000488493C4.56852 -0.000488512 4.21875 0.349277 4.21875 0.780761L4.21875 17.326L1.49125 14.5853C1.18688 14.2794 0.692229 14.2783 0.386408 14.5826C0.0805104 14.8871 0.0794557 15.3817 0.383752 15.6875L4.44625 19.7697C4.44649 19.7699 4.44676 19.7701 4.44699 19.7704C4.75238 20.0764 5.24863 20.0754 5.55301 19.7704Z" fill="#0DBD68"/>
</svg>
