<svg width="32" height="32" viewBox="0 0 32 32" fill="none" xmlns="http://www.w3.org/2000/svg">
<path d="M21.121 15.464L17 19.586V9C17 8.448 16.552 8 16 8C15.448 8 15 8.448 15 9V19.586L10.879 15.465C10.488 15.074 9.85501 15.074 9.46499 15.465C9.07399 15.856 9.07399 16.489 9.46499 16.879L15.122 22.5359C15.362 22.7759 15.69 22.8499 16.001 22.7949C16.3111 22.8499 16.6401 22.775 16.8801 22.5359L22.537 16.879C22.9281 16.4879 22.9281 15.855 22.537 15.465C22.145 15.074 21.512 15.074 21.121 15.464ZM16 0C7.16403 0 0 7.16298 0 16C0 24.837 7.16403 32 16 32C24.836 32 32 24.836 32 16C32 7.16403 24.837 0 16 0ZM16 30C8.26797 30 2 23.732 2 16C2 8.26797 8.26797 2 16 2C23.732 2 30 8.26797 30 16C30 23.732 23.732 30 16 30Z" fill="#3F2855" fill-opacity="0.8"/>
</svg>
