<svg width="258" height="317" viewBox="0 0 258 317" fill="none" xmlns="http://www.w3.org/2000/svg">
<path d="M265.487 8.50965C288.082 47.6447 274.631 97.8424 235.496 120.437C196.361 143.032 146.163 129.581 123.569 90.4461C100.974 51.3111 114.425 1.11343 153.56 -21.4812C192.695 -44.0758 242.892 -30.6254 265.487 8.50965Z" fill="#3F2855" fill-opacity="0.03"/>
<path d="M140.117 134.505C147.201 169.12 157.975 209.632 175.17 253.318C188.565 287.443 203.265 317.374 217.699 342.872C251.458 323.381 285.003 304.014 318.762 284.523C305.478 261.515 292.319 238.722 279.035 215.714C285.486 211.99 291.937 208.266 298.388 204.541C311.671 227.549 324.831 250.342 338.114 273.35C371.874 253.859 405.418 234.492 439.177 215.001C424.404 189.413 406.015 161.038 382.787 131.73C353.302 94.5663 323.605 64.9792 297.078 41.8762C298.537 51.3553 299.932 67.1788 294.098 84.8824C279.206 129.605 226.252 161.038 179.803 152.591C161.372 149.47 147.936 140.599 140.117 134.505Z" fill="#3F2855" fill-opacity="0.03"/>
<path d="M120.971 143.552C115.174 148.905 106.318 158.892 99.9784 173.734C97.0523 180.584 88.9193 200.762 94.974 225.65C96.1002 229.587 103.72 260.165 133.76 276.939C146.882 284.272 159.241 286.311 166.512 286.987C156.678 263.995 147.107 237.983 138.297 209.812C131.109 186.438 125.56 164.412 120.971 143.552Z" fill="#3F2855" fill-opacity="0.03"/>
</svg>
