<svg width="18" height="18" viewBox="0 0 18 18" fill="none" xmlns="http://www.w3.org/2000/svg">
<path d="M10.8183 16.3949C10.6698 16.4319 10.5185 16.4648 10.3683 16.4924C9.97564 16.5654 9.71604 16.9431 9.78867 17.3361C9.82454 17.5294 9.93435 17.6905 10.0834 17.7956C10.2371 17.9037 10.4326 17.9526 10.6319 17.9155C10.8108 17.8823 10.9911 17.8433 11.168 17.7991C11.5557 17.7026 11.7919 17.3098 11.6952 16.9223C11.5987 16.5344 11.2062 16.2983 10.8183 16.3949Z" fill="#3F2855"/>
<path d="M16.1709 6.6956C16.2216 6.84836 16.3184 6.97306 16.4406 7.05923C16.6219 7.18688 16.859 7.22983 17.0853 7.155C17.4648 7.02901 17.6703 6.61987 17.5448 6.24064C17.4876 6.06776 17.4242 5.89434 17.3566 5.72549C17.2081 5.35442 16.7872 5.17376 16.416 5.32219C16.0451 5.47054 15.8644 5.89156 16.0129 6.26274C16.0697 6.40466 16.1229 6.55034 16.1709 6.6956Z" fill="#3F2855"/>
<path d="M13.168 15.3622C13.0403 15.4465 12.9086 15.528 12.7758 15.6045C12.4296 15.8042 12.311 16.2468 12.5106 16.5929C12.5648 16.6871 12.637 16.764 12.7202 16.8228C12.9434 16.9799 13.2466 17.0034 13.499 16.858C13.6568 16.767 13.8137 16.6702 13.9657 16.5697C14.299 16.3495 14.3907 15.9005 14.1704 15.567C13.9501 15.2335 13.5014 15.1418 13.168 15.3622Z" fill="#3F2855"/>
<path d="M17.995 8.7167C17.9792 8.31731 17.6428 8.00645 17.2433 8.02205C16.8443 8.03779 16.5332 8.37431 16.5489 8.77354C16.5549 8.92619 16.5565 9.08111 16.5529 9.2336C16.5473 9.48406 16.6698 9.70732 16.8602 9.84151C16.9736 9.92137 17.1112 9.9697 17.2605 9.97311C17.6599 9.98197 17.9908 9.66519 17.9997 9.2656C18.0037 9.0834 18.0022 8.89879 17.995 8.7167Z" fill="#3F2855"/>
<path d="M16.053 13.4592C15.7327 13.2189 15.2796 13.2842 15.0398 13.6038C14.9479 13.7263 14.8512 13.8472 14.7521 13.9636C14.4933 14.2677 14.5298 14.7246 14.834 14.9836C14.8513 14.9983 14.8688 15.0118 14.887 15.0245C15.1894 15.2377 15.6096 15.1887 15.854 14.9018C15.9723 14.7629 16.0876 14.6185 16.1974 14.4722C16.4373 14.1526 16.3724 13.6991 16.053 13.4592Z" fill="#3F2855"/>
<path d="M17.115 10.8424C16.7337 10.7229 16.3276 10.9351 16.2081 11.3164C16.1624 11.4621 16.1117 11.6085 16.057 11.7519C15.9368 12.0674 16.0519 12.4147 16.3158 12.6007C16.3642 12.6347 16.4175 12.6636 16.4755 12.6855C16.8488 12.8279 17.2669 12.6406 17.4092 12.2671C17.4742 12.0967 17.5345 11.9225 17.589 11.7493C17.7083 11.3679 17.4962 10.962 17.115 10.8424Z" fill="#3F2855"/>
<path d="M7.66117 16.4989C7.01422 16.3828 6.39362 16.185 5.80514 15.9091C5.79818 15.9054 5.79195 15.9013 5.78463 15.898C5.64596 15.8327 5.50751 15.7628 5.37333 15.6897C5.37286 15.6892 5.37201 15.6888 5.37127 15.6885C5.12507 15.553 4.88479 15.4029 4.65135 15.2386C1.24745 12.8408 0.429014 8.12072 2.82698 4.71685C3.3484 3.97696 3.97941 3.35969 4.68289 2.87046C4.69155 2.86442 4.70022 2.85842 4.70881 2.85235C7.18776 1.14428 10.5538 1.02917 13.186 2.78436L12.6207 3.60121C12.4635 3.82857 12.5602 3.99426 12.8354 3.96949L15.2911 3.74964C15.5666 3.72488 15.7313 3.48657 15.6572 3.22051L14.9978 0.844527C14.924 0.578164 14.735 0.546281 14.5776 0.773603L14.011 1.59239C12.0793 0.295666 9.76235 -0.198792 7.46271 0.199979C7.23109 0.240065 7.00273 0.289127 6.7775 0.346238C6.77575 0.346548 6.77436 0.346741 6.77297 0.347051C6.76426 0.349179 6.75544 0.352003 6.74697 0.354364C4.76395 0.863603 3.03379 2.02018 1.79921 3.67036C1.7888 3.6827 1.77809 3.69477 1.76826 3.7082C1.7272 3.76349 1.68646 3.82006 1.64657 3.87663C1.58133 3.96934 1.51702 4.06437 1.4555 4.1594C1.4478 4.17085 1.44192 4.1825 1.43519 4.19407C0.4164 5.77278 -0.0750018 7.59793 0.00927166 9.45605C0.00946512 9.46216 0.00911688 9.46832 0.00927166 9.47458C0.0174359 9.65609 0.0318297 9.84012 0.0513697 10.0213C0.0524144 10.033 0.0550068 10.044 0.0569802 10.0557C0.0771779 10.2379 0.102522 10.4205 0.134289 10.603C0.457144 12.4656 1.33579 14.1417 2.65239 15.4458C2.65545 15.4489 2.65862 15.4522 2.66172 15.4554C2.6628 15.4566 2.664 15.4572 2.66505 15.4583C3.01878 15.8072 3.40354 16.1299 3.81783 16.4217C4.90201 17.1857 6.10927 17.6907 7.40579 17.9233C7.79919 17.994 8.17497 17.7321 8.24555 17.3389C8.31609 16.9455 8.05444 16.5694 7.66117 16.4989Z" fill="#3F2855"/>
<path d="M8.55628 3.21924C8.23269 3.21924 7.97058 3.48158 7.97058 3.8047V9.63756L13.3052 12.3953C13.391 12.4397 13.483 12.4606 13.5734 12.4606C13.7853 12.4606 13.99 12.3453 14.094 12.1439C14.2424 11.8566 14.1301 11.5036 13.8428 11.3552L9.14132 8.9246V3.8047C9.14128 3.48158 8.87948 3.21924 8.55628 3.21924Z" fill="#3F2855"/>
</svg>
