<svg width="20" height="20" viewBox="0 0 20 20" fill="none" xmlns="http://www.w3.org/2000/svg">
<path d="M12.0203 18.2164C11.8554 18.2575 11.6872 18.294 11.5204 18.3247C11.0841 18.4059 10.7956 18.8255 10.8763 19.2621C10.9162 19.477 11.0382 19.6559 11.2038 19.7727C11.3746 19.8929 11.5918 19.9471 11.8133 19.906C12.012 19.8691 12.2123 19.8257 12.4089 19.7766C12.8397 19.6694 13.1022 19.233 12.9947 18.8023C12.8875 18.3713 12.4514 18.1091 12.0203 18.2164Z" fill="#3F2855"/>
<path d="M17.9677 7.43942C18.024 7.60915 18.1316 7.74771 18.2674 7.84346C18.4687 7.98529 18.7322 8.03301 18.9837 7.94986C19.4053 7.80988 19.6337 7.35528 19.4942 6.93391C19.4307 6.74182 19.3602 6.54913 19.2851 6.36151C19.1202 5.94922 18.6525 5.74849 18.24 5.91341C17.8279 6.07824 17.6271 6.54604 17.7921 6.95846C17.8552 7.11616 17.9144 7.27802 17.9677 7.43942Z" fill="#3F2855"/>
<path d="M14.631 17.0691C14.4892 17.1628 14.3428 17.2534 14.1954 17.3383C13.8106 17.5602 13.6788 18.052 13.9007 18.4366C13.9609 18.5412 14.0411 18.6267 14.1335 18.6921C14.3816 18.8666 14.7184 18.8927 14.9988 18.7311C15.1742 18.63 15.3485 18.5225 15.5174 18.4108C15.8877 18.1661 15.9897 17.6672 15.7449 17.2967C15.5001 16.9261 15.0015 16.8243 14.631 17.0691Z" fill="#3F2855"/>
<path d="M19.9941 9.68482C19.9766 9.24105 19.6028 8.89565 19.1589 8.91298C18.7156 8.93048 18.3699 9.30438 18.3873 9.74797C18.394 9.91758 18.3957 10.0897 18.3918 10.2592C18.3856 10.5374 18.5217 10.7855 18.7332 10.9346C18.8592 11.0233 19.0122 11.077 19.178 11.0808C19.6217 11.0907 19.9895 10.7387 19.9993 10.2947C20.0038 10.0923 20.0021 9.88714 19.9941 9.68482Z" fill="#3F2855"/>
<path d="M17.8363 14.9543C17.4805 14.6873 16.977 14.7598 16.7105 15.115C16.6085 15.2511 16.501 15.3854 16.3909 15.5148C16.1033 15.8527 16.1439 16.3603 16.4818 16.6481C16.5011 16.6644 16.5206 16.6794 16.5408 16.6935C16.8767 16.9304 17.3436 16.876 17.6153 16.5572C17.7467 16.4029 17.8748 16.2424 17.9968 16.0799C18.2633 15.7247 18.1912 15.2209 17.8363 14.9543Z" fill="#3F2855"/>
<path d="M19.0165 12.047C18.5928 11.9142 18.1416 12.1501 18.0089 12.5737C17.9581 12.7356 17.9017 12.8982 17.8409 13.0575C17.7074 13.4082 17.8354 13.794 18.1286 14.0007C18.1823 14.0385 18.2416 14.0706 18.3059 14.0949C18.7208 14.2532 19.1853 14.0451 19.3434 13.6301C19.4156 13.4407 19.4826 13.2472 19.5432 13.0547C19.6758 12.631 19.4401 12.1799 19.0165 12.047Z" fill="#3F2855"/>
<path d="M8.51241 18.3319C7.79358 18.2029 7.10402 17.9831 6.45016 17.6766C6.44242 17.6725 6.4355 17.6679 6.42737 17.6642C6.27329 17.5917 6.11946 17.514 5.97036 17.4328C5.96985 17.4322 5.9689 17.4319 5.96808 17.4315C5.69452 17.2809 5.42754 17.1142 5.16817 16.9316C1.38605 14.2674 0.476682 9.02283 3.14108 5.24075C3.72045 4.41866 4.42157 3.7328 5.20321 3.18921C5.21284 3.1825 5.22247 3.17583 5.23201 3.16909C7.9864 1.27123 11.7264 1.14333 14.6511 3.09355L14.023 4.00116C13.8483 4.25378 13.9558 4.43787 14.2615 4.41036L16.9901 4.16608C17.2962 4.13856 17.4793 3.87377 17.3969 3.57816L16.6642 0.938174C16.5822 0.642215 16.3722 0.606789 16.1974 0.859369L15.5677 1.76913C13.4214 0.328328 10.8471 -0.22107 8.2919 0.222008C8.03455 0.266548 7.78081 0.321063 7.53055 0.384519C7.52862 0.384863 7.52707 0.385078 7.52552 0.385422C7.51585 0.387787 7.50604 0.390925 7.49663 0.393548C5.29328 0.959369 3.37088 2.24445 1.99912 4.07798C1.98756 4.0917 1.97565 4.10511 1.96473 4.12003C1.91912 4.18147 1.87384 4.24432 1.82952 4.30718C1.75703 4.41019 1.68558 4.51578 1.61722 4.62136C1.60867 4.63409 1.60213 4.64703 1.59465 4.65988C0.462666 6.41401 -0.0833353 8.44196 0.0103018 10.5065C0.0105168 10.5133 0.0101299 10.5202 0.0103018 10.5271C0.0193732 10.7288 0.0353663 10.9333 0.0570774 11.1346C0.0582382 11.1475 0.0611187 11.1598 0.0633113 11.1728C0.0857533 11.3752 0.113913 11.5781 0.14921 11.781C0.507937 13.8505 1.48421 15.7128 2.9471 17.1619C2.9505 17.1653 2.95402 17.169 2.95746 17.1725C2.95867 17.1738 2.96 17.1745 2.96116 17.1758C3.3542 17.5634 3.78171 17.922 4.24203 18.2462C5.44667 19.095 6.78807 19.6561 8.22866 19.9146C8.66576 19.9932 9.0833 19.7022 9.16172 19.2653C9.2401 18.8281 8.94938 18.4102 8.51241 18.3319Z" fill="#3F2855"/>
<path d="M9.50673 3.5769C9.14719 3.5769 8.85596 3.86839 8.85596 4.22742V10.7084L14.7833 13.7725C14.8787 13.8219 14.9808 13.8451 15.0814 13.8451C15.3168 13.8451 15.5442 13.7169 15.6598 13.4932C15.8247 13.174 15.6999 12.7818 15.3806 12.6169L10.1568 9.9162V4.22742C10.1567 3.86839 9.86584 3.5769 9.50673 3.5769Z" fill="#3F2855"/>
</svg>
