<svg width="20" height="20" viewBox="0 0 20 20" fill="none" xmlns="http://www.w3.org/2000/svg">
<g clip-path="url(#clip0)">
<path d="M11.8323 10.0162L19.6199 2.22837C20.1267 1.7218 20.1267 0.902754 19.6199 0.396187C19.1134 -0.11038 18.2943 -0.11038 17.7877 0.396187L9.99989 8.18403L2.21229 0.396187C1.70548 -0.11038 0.88667 -0.11038 0.380103 0.396187C-0.126701 0.902754 -0.126701 1.7218 0.380103 2.22837L8.16771 10.0162L0.380103 17.8041C-0.126701 18.3106 -0.126701 19.1297 0.380103 19.6362C0.632556 19.8889 0.964494 20.0159 1.29619 20.0159C1.6279 20.0159 1.9596 19.8889 2.21229 19.6362L9.99989 11.8484L17.7877 19.6362C18.0404 19.8889 18.3721 20.0159 18.7038 20.0159C19.0355 20.0159 19.3672 19.8889 19.6199 19.6362C20.1267 19.1297 20.1267 18.3106 19.6199 17.8041L11.8323 10.0162Z" fill="#0DBD68"/>
</g>
<defs>
<clipPath id="clip0">
<rect width="20" height="20" fill="white"/>
</clipPath>
</defs>
</svg>
