<svg id="SvgjsSvg1020" width="288" height="288" xmlns="http://www.w3.org/2000/svg" version="1.1" xmlns:xlink="http://www.w3.org/1999/xlink" xmlns:svgjs="http://svgjs.com/svgjs"><rect id="SvgjsRect1034" width="288" height="288" rx="42" ry="42" fill="#363232" transform="matrix(1,0,0,1,0,0)"></rect><defs id="SvgjsDefs1021"></defs><g id="SvgjsG1022" transform="matrix(0.71,0,0,0.71,41.760000000000005,41.760000000000005)"><svg xmlns="http://www.w3.org/2000/svg" enable-background="new 0 0 24 24" viewBox="0 0 24 24" width="288" height="288"><path fill="#0acf83" d="M8,24c2.208,0,4-1.792,4-4v-4H8c-2.208,0-4,1.792-4,4C4,22.208,5.792,24,8,24L8,24z" class="color0ACF83 svgShape"></path><path fill="#a259ff" d="M4,12c0-2.208,1.792-4,4-4h4v8H8C5.792,16,4,14.208,4,12L4,12z" class="colorA259FF svgShape"></path><path fill="#f24e1e" d="M4,4c0-2.208,1.792-4,4-4h4v8H8C5.792,8,4,6.208,4,4L4,4z" class="colorF24E1E svgShape"></path><path fill="#09b472" d="M8.419,16H8c-2.208,0-4,1.792-4,4c0,2.208,1.792,4,4,4l0,0c0.142,0,0.281-0.007,0.419-0.022V16L8.419,16z" class="color09B472 svgShape"></path><path fill="#8d4dde" d="M8.419,8H8c-2.208,0-4,1.792-4,4s1.792,4,4,4h0.419V8L8.419,8z" class="color8D4DDE svgShape"></path><path fill="#d3441a" d="M8.419,0H8C5.792,0,4,1.792,4,4s1.792,4,4,4h0.419V0L8.419,0z" class="colorD3441A svgShape"></path><path fill="#ff7262" d="M12,0h4c2.208,0,4,1.792,4,4c0,2.208-1.792,4-4,4h-4V0L12,0z" class="colorFF7262 svgShape"></path><path fill="#1abcfe" d="M20,12c0,2.208-1.792,4-4,4c-2.208,0-4-1.792-4-4c0-2.208,1.792-4,4-4C18.208,8,20,9.792,20,12L20,12z" class="color1ABCFE svgShape"></path><polygon fill="#de6355" points="16 0 12 0 12 8 16 8 16 8 16 8 16 0 16 0" class="colorDE6355 svgShape"></polygon><path fill="#17a4dd" d="M16,8L16,8c-2.208,0-4,1.792-4,4c0,2.208,1.792,4,4,4l0,0V8L16,8L16,8z" class="color17A4DD svgShape"></path></svg></g></svg>