<svg width="154" height="344" viewBox="0 0 154 344" fill="none" xmlns="http://www.w3.org/2000/svg">
<path d="M200.312 71.925C217.359 101.453 207.211 139.327 177.683 156.375C148.156 173.423 110.281 163.274 93.2335 133.747C76.1858 104.219 86.3342 66.3445 115.862 49.2967C145.389 32.249 183.264 42.3974 200.312 71.925Z" fill="#3F2855" fill-opacity="0.03"/>
<path d="M105.72 166.989C111.064 193.106 119.194 223.673 132.167 256.634C142.273 282.382 153.365 304.965 164.256 324.203C189.727 309.497 215.037 294.885 240.508 280.179C230.486 262.819 220.557 245.622 210.534 228.262C215.401 225.452 220.268 222.642 225.136 219.832C235.158 237.191 245.087 254.389 255.11 271.748C280.581 257.042 305.891 242.43 331.362 227.724C320.216 208.417 306.341 187.009 288.815 164.896C266.569 136.855 244.162 114.531 224.148 97.1001C225.248 104.252 226.301 116.191 221.899 129.548C210.663 163.292 170.709 187.008 135.663 180.635C121.757 178.28 111.619 171.587 105.72 166.989Z" fill="#3F2855" fill-opacity="0.03"/>
<path d="M91.2733 173.815C86.8995 177.855 80.2177 185.39 75.4343 196.588C73.2266 201.756 67.0902 216.98 71.6585 235.758C72.5083 238.729 78.2575 261.801 100.923 274.457C110.823 279.989 120.148 281.528 125.634 282.038C118.214 264.69 110.993 245.064 104.346 223.809C98.9228 206.173 94.7359 189.554 91.2733 173.815Z" fill="#3F2855" fill-opacity="0.03"/>
</svg>
