<svg width="12" height="15" viewBox="0 0 12 15" fill="none" xmlns="http://www.w3.org/2000/svg">
<path d="M5.9994 2.39818C4.31682 2.39818 2.94788 3.76707 2.94788 5.44966C2.94788 7.13224 4.31682 8.50113 5.9994 8.50113C7.68199 8.50113 9.05093 7.13224 9.05093 5.44966C9.05093 3.76707 7.68199 2.39818 5.9994 2.39818ZM5.9994 7.6803C4.76939 7.6803 3.76865 6.67961 3.76865 5.4496C3.76865 4.21959 4.76939 3.21896 5.9994 3.21896C7.22942 3.21896 8.23016 4.21964 8.23016 5.44966C8.23016 6.67967 7.22947 7.6803 5.9994 7.6803Z" fill="#3F2855"/>
<path d="M5.99907 0.273842C3.14584 0.273842 0.824585 2.5951 0.824585 5.44833C0.824585 7.09382 2.20458 9.54536 3.02716 10.8602C3.56838 11.7252 4.14998 12.5485 4.66477 13.1783C5.49107 14.1892 5.78682 14.2738 5.99913 14.2738C6.21461 14.2738 6.49383 14.1891 7.31756 13.1777C7.8335 12.5441 8.41538 11.7213 8.95605 10.8608C9.78426 9.54279 11.1736 7.08687 11.1736 5.44828C11.1736 2.5951 8.85236 0.273842 5.99907 0.273842ZM8.38703 10.2218C7.32572 11.9445 6.35135 13.1086 5.9942 13.4057C5.6352 13.1177 4.67664 11.9813 3.6005 10.2272C2.35801 8.20181 1.64541 6.45996 1.64541 5.44833C1.64536 3.04768 3.59842 1.09462 5.99907 1.09462C8.39973 1.09462 10.3528 3.04768 10.3528 5.44833C10.3528 6.45416 9.6363 8.19398 8.38703 10.2218Z" fill="#3F2855"/>
</svg>
