<svg width="20" height="20" viewBox="0 0 20 20" fill="none" xmlns="http://www.w3.org/2000/svg">
<path d="M10 12.2916V16.4583C10 17.2625 10.6542 17.9166 11.4583 17.9166H14.375V18.75H13.9583C13.6133 18.75 13.3333 19.03 13.3333 19.375C13.3333 19.72 13.6133 20 13.9583 20H16.0417C16.3867 20 16.6667 19.72 16.6667 19.375C16.6667 19.03 16.3867 18.75 16.0417 18.75H15.625V17.9166H18.5417C19.3458 17.9166 20 17.2625 20 16.4583V12.2916C20 11.4875 19.3458 10.8333 18.5417 10.8333H11.4583C10.6542 10.8333 10 11.4875 10 12.2916ZM18.75 12.2916V16.4583C18.75 16.5733 18.6567 16.6666 18.5417 16.6666H11.4583C11.3433 16.6666 11.25 16.5733 11.25 16.4583V12.2916C11.25 12.1766 11.3433 12.0833 11.4583 12.0833H18.5417C18.6567 12.0833 18.75 12.1766 18.75 12.2916Z" fill="#3F2855"/>
<path d="M12.9165 5.00004C13.3765 5.00004 13.7498 4.6267 13.7498 4.16671C13.7498 3.70671 13.3765 3.33337 12.9165 3.33337H12.4998C12.0398 3.33337 11.6665 3.70671 11.6665 4.16671C11.6665 4.6267 12.0398 5.00004 12.4998 5.00004H12.9165Z" fill="#3F2855"/>
<path d="M16.0208 4.15579C15.7117 3.81496 15.185 3.78829 14.8433 4.09829C14.5025 4.40746 14.4767 4.93412 14.7858 5.27579C14.86 5.35746 14.9167 5.45162 14.9533 5.55579C15.1058 5.98746 15.5783 6.21912 16.0158 6.06496C16.45 5.91162 16.6775 5.43662 16.525 5.00246C16.415 4.68829 16.245 4.40329 16.0208 4.15579Z" fill="#3F2855"/>
<path d="M15 7.91664V8.33331C15 8.79331 15.3733 9.16664 15.8333 9.16664C16.2933 9.16664 16.6667 8.79331 16.6667 8.33331V7.91664C16.6667 7.45664 16.2933 7.08331 15.8333 7.08331C15.3733 7.08331 15 7.45664 15 7.91664Z" fill="#3F2855"/>
<path d="M7.08333 15C6.62333 15 6.25 15.3733 6.25 15.8333C6.25 16.2933 6.62333 16.6667 7.08333 16.6667H7.5C7.95999 16.6667 8.33333 16.2933 8.33333 15.8333C8.33333 15.3733 7.95999 15 7.5 15H7.08333Z" fill="#3F2855"/>
<path d="M3.97931 15.8441C4.28931 16.1858 4.81681 16.21 5.15682 15.9016C5.49765 15.5925 5.52348 15.0658 5.21432 14.7241C5.14015 14.6425 5.08348 14.5483 5.04681 14.4441C4.89348 14.01 4.41765 13.7808 3.98431 13.935C3.55014 14.0883 3.32264 14.5633 3.47514 14.9975C3.58514 15.3116 3.75514 15.5966 3.97931 15.8441Z" fill="#3F2855"/>
<path d="M5.00016 12.0833V11.6666C5.00016 11.2066 4.62683 10.8333 4.16683 10.8333C3.70683 10.8333 3.3335 11.2066 3.3335 11.6666V12.0833C3.3335 12.5433 3.70683 12.9166 4.16683 12.9166C4.62683 12.9166 5.00016 12.5433 5.00016 12.0833Z" fill="#3F2855"/>
<path d="M1.45833 7.08333H4.375V7.91667H3.95833C3.61333 7.91667 3.33333 8.19667 3.33333 8.54167C3.33333 8.88667 3.61333 9.16667 3.95833 9.16667H6.04167C6.38667 9.16667 6.66667 8.88667 6.66667 8.54167C6.66667 8.19667 6.38667 7.91667 6.04167 7.91667H5.625V7.08333H8.54167C9.34583 7.08333 10 6.42917 10 5.625V1.45833C10 0.654167 9.34583 0 8.54167 0H1.45833C0.654167 0 0 0.654167 0 1.45833V5.625C0 6.42917 0.654167 7.08333 1.45833 7.08333ZM1.25 1.45833C1.25 1.34333 1.34333 1.25 1.45833 1.25H8.54167C8.65667 1.25 8.75 1.34333 8.75 1.45833V5.625C8.75 5.74 8.65667 5.83333 8.54167 5.83333H1.45833C1.34333 5.83333 1.25 5.74 1.25 5.625V1.45833Z" fill="#3F2855"/>
</svg>
