<svg width="16" height="20" viewBox="0 0 16 20" fill="none" xmlns="http://www.w3.org/2000/svg">
<path d="M8.25251 0.00416853C4.19092 -0.132709 0.855469 3.11898 0.855469 7.14965C0.855469 11.724 5.24529 15.0438 7.70578 19.818C7.8307 20.0604 8.17966 20.0608 8.30501 19.8184C10.5309 15.5225 14.3352 12.6419 15.0402 8.50332C15.7702 4.2207 12.5944 0.150548 8.25251 0.00416853ZM8.00504 10.8947C5.93677 10.8947 4.26004 9.21789 4.26004 7.14965C4.26004 5.08142 5.93681 3.40466 8.00504 3.40466C10.0733 3.40466 11.7501 5.08142 11.7501 7.14965C11.7501 9.21789 10.0733 10.8947 8.00504 10.8947Z" fill="#3F2855"/>
</svg>
