<svg width="20" height="16" viewBox="0 0 20 16" fill="none" xmlns="http://www.w3.org/2000/svg">
<path d="M19.9851 2.30866C19.9851 2.2858 20.0008 2.26356 19.9998 2.24097L13.8965 8.12184L19.9925 13.8148C19.9961 13.7742 19.9851 13.7332 19.9851 13.6916V2.30866Z" fill="#3F2855"/>
<path d="M12.9653 9.02661L10.4737 11.4238C10.3477 11.5451 10.1848 11.6059 10.0219 11.6059C9.86236 11.6059 9.70283 11.5477 9.57762 11.431L7.09284 9.11559L0.957031 15.0298C1.10623 15.0834 1.26637 15.1251 1.43407 15.1251H18.6098C18.8588 15.1251 19.0924 15.0492 19.2955 14.9361L12.9653 9.02661Z" fill="#3F2855"/>
<path d="M10.0145 10.0568L19.329 1.08425C19.1181 0.958868 18.8726 0.874756 18.6095 0.874756H1.43379C1.09117 0.874756 0.77723 1.00779 0.532715 1.21068L10.0145 10.0568Z" fill="#3F2855"/>
<path d="M0 2.5271V13.6914C0 13.8195 0.0294565 13.9431 0.0614329 14.0612L6.12113 8.22584L0 2.5271Z" fill="#3F2855"/>
</svg>
