<svg width="14" height="14" viewBox="0 0 14 14" fill="none" xmlns="http://www.w3.org/2000/svg">
<g clip-path="url(#clip0)">
<path d="M7.00012 8.605V11.5217C7.00012 12.0846 7.45804 12.5425 8.02096 12.5425H10.0626V13.1258H9.77096C9.52946 13.1258 9.33346 13.3218 9.33346 13.5633C9.33346 13.8048 9.52946 14.0008 9.77096 14.0008H11.2293C11.4708 14.0008 11.6668 13.8048 11.6668 13.5633C11.6668 13.3218 11.4708 13.1258 11.2293 13.1258H10.9376V12.5425H12.9793C13.5422 12.5425 14.0001 12.0846 14.0001 11.5217V8.605C14.0001 8.04208 13.5422 7.58417 12.9793 7.58417H8.02096C7.45804 7.58417 7.00012 8.04208 7.00012 8.605ZM13.1251 8.605V11.5217C13.1251 11.6022 13.0598 11.6675 12.9793 11.6675H8.02096C7.94046 11.6675 7.87512 11.6022 7.87512 11.5217V8.605C7.87512 8.5245 7.94046 8.45917 8.02096 8.45917H12.9793C13.0598 8.45917 13.1251 8.5245 13.1251 8.605Z" fill="#3F2855"/>
<path d="M9.04065 3.50033C9.36264 3.50033 9.62398 3.23899 9.62398 2.917C9.62398 2.595 9.36264 2.33366 9.04065 2.33366H8.74898C8.42698 2.33366 8.16565 2.595 8.16565 2.917C8.16565 3.23899 8.42698 3.50033 8.74898 3.50033H9.04065Z" fill="#3F2855"/>
<path d="M11.2144 2.90827C10.998 2.66968 10.6293 2.65102 10.3902 2.86802C10.1516 3.08443 10.1335 3.4531 10.3499 3.69227C10.4018 3.74943 10.4415 3.81535 10.4672 3.88827C10.5739 4.19043 10.9047 4.3526 11.2109 4.24468C11.5149 4.13735 11.6741 3.80485 11.5674 3.50093C11.4904 3.28102 11.3714 3.08152 11.2144 2.90827Z" fill="#3F2855"/>
<path d="M10.5002 5.54265V5.83432C10.5002 6.15632 10.7616 6.41765 11.0836 6.41765C11.4056 6.41765 11.6669 6.15632 11.6669 5.83432V5.54265C11.6669 5.22065 11.4056 4.95932 11.0836 4.95932C10.7616 4.95932 10.5002 5.22065 10.5002 5.54265Z" fill="#3F2855"/>
<path d="M4.9587 10.5002C4.6367 10.5002 4.37537 10.7615 4.37537 11.0836C4.37537 11.4056 4.6367 11.6669 4.9587 11.6669H5.25036C5.57236 11.6669 5.83369 11.4056 5.83369 11.0836C5.83369 10.7615 5.57236 10.5002 5.25036 10.5002H4.9587Z" fill="#3F2855"/>
<path d="M2.78625 11.0909C3.00325 11.3301 3.3725 11.347 3.6105 11.1312C3.84909 10.9148 3.86717 10.5461 3.65075 10.3069C3.59884 10.2498 3.55917 10.1839 3.5335 10.1109C3.42617 9.80702 3.09308 9.6466 2.78975 9.75452C2.48583 9.86185 2.32658 10.1944 2.43333 10.4983C2.51033 10.7182 2.62933 10.9177 2.78625 11.0909Z" fill="#3F2855"/>
<path d="M3.5004 8.45916V8.1675C3.5004 7.8455 3.23907 7.58417 2.91707 7.58417C2.59507 7.58417 2.33374 7.8455 2.33374 8.1675V8.45916C2.33374 8.78116 2.59507 9.0425 2.91707 9.0425C3.23907 9.0425 3.5004 8.78116 3.5004 8.45916Z" fill="#3F2855"/>
<path d="M1.02083 4.95833H3.0625V5.54167H2.77083C2.52933 5.54167 2.33333 5.73767 2.33333 5.97917C2.33333 6.22067 2.52933 6.41667 2.77083 6.41667H4.22917C4.47067 6.41667 4.66667 6.22067 4.66667 5.97917C4.66667 5.73767 4.47067 5.54167 4.22917 5.54167H3.9375V4.95833H5.97917C6.54208 4.95833 7 4.50042 7 3.9375V1.02083C7 0.457917 6.54208 0 5.97917 0H1.02083C0.457917 0 0 0.457917 0 1.02083V3.9375C0 4.50042 0.457917 4.95833 1.02083 4.95833ZM0.875 1.02083C0.875 0.940333 0.940333 0.875 1.02083 0.875H5.97917C6.05967 0.875 6.125 0.940333 6.125 1.02083V3.9375C6.125 4.018 6.05967 4.08333 5.97917 4.08333H1.02083C0.940333 4.08333 0.875 4.018 0.875 3.9375V1.02083Z" fill="#3F2855"/>
</g>
<defs>
<clipPath id="clip0">
<rect width="14" height="14" fill="white"/>
</clipPath>
</defs>
</svg>
