<svg width="110" height="24" viewBox="0 0 110 24" fill="none" xmlns="http://www.w3.org/2000/svg">
<path d="M38.9515 12.2488H41.5826V17.2977C40.9071 17.8074 40.1249 18.1985 39.236 18.4711C38.3471 18.7437 37.4523 18.8799 36.5515 18.8799C35.2597 18.8799 34.0982 18.6074 33.0671 18.0622C32.0359 17.5051 31.2241 16.7407 30.6315 15.7688C30.0507 14.7851 29.7604 13.677 29.7604 12.4444C29.7604 11.2118 30.0507 10.1095 30.6315 9.13769C31.2241 8.15398 32.0419 7.38953 33.0848 6.84435C34.1278 6.28731 35.3011 6.00879 36.6048 6.00879C37.6952 6.00879 38.6849 6.19249 39.5737 6.5599C40.4626 6.92731 41.2093 7.46065 41.8138 8.15991L39.9649 9.86658C39.076 8.93028 38.0034 8.46213 36.7471 8.46213C35.953 8.46213 35.2478 8.62806 34.6315 8.95991C34.0152 9.29176 33.5352 9.75991 33.1915 10.3644C32.8478 10.9688 32.6759 11.6621 32.6759 12.4444C32.6759 13.2147 32.8478 13.9022 33.1915 14.5066C33.5352 15.111 34.0093 15.5851 34.6137 15.9288C35.23 16.2607 35.9293 16.4266 36.7115 16.4266C37.5411 16.4266 38.2878 16.2488 38.9515 15.8933V12.2488Z" fill="#3F2855"/>
<path d="M50.2846 18.8799C48.9928 18.8799 47.8253 18.6014 46.7824 18.0444C45.7513 17.4873 44.9394 16.7229 44.3468 15.751C43.7661 14.7673 43.4757 13.6651 43.4757 12.4444C43.4757 11.2236 43.7661 10.1273 44.3468 9.15547C44.9394 8.17176 45.7513 7.40139 46.7824 6.84435C47.8253 6.28731 48.9928 6.00879 50.2846 6.00879C51.5765 6.00879 52.738 6.28731 53.7691 6.84435C54.8002 7.40139 55.612 8.17176 56.2046 9.15547C56.7972 10.1273 57.0935 11.2236 57.0935 12.4444C57.0935 13.6651 56.7972 14.7673 56.2046 15.751C55.612 16.7229 54.8002 17.4873 53.7691 18.0444C52.738 18.6014 51.5765 18.8799 50.2846 18.8799ZM50.2846 16.4266C51.0194 16.4266 51.6831 16.2607 52.2757 15.9288C52.8683 15.5851 53.3306 15.111 53.6624 14.5066C54.0061 13.9022 54.178 13.2147 54.178 12.4444C54.178 11.674 54.0061 10.9866 53.6624 10.3821C53.3306 9.77769 52.8683 9.30954 52.2757 8.97769C51.6831 8.63398 51.0194 8.46213 50.2846 8.46213C49.5498 8.46213 48.8861 8.63398 48.2935 8.97769C47.7009 9.30954 47.2328 9.77769 46.889 10.3821C46.5572 10.9866 46.3913 11.674 46.3913 12.4444C46.3913 13.2147 46.5572 13.9022 46.889 14.5066C47.2328 15.111 47.7009 15.5851 48.2935 15.9288C48.8861 16.2607 49.5498 16.4266 50.2846 16.4266Z" fill="#3F2855"/>
<path d="M67.28 15.9999H61.5022L60.3999 18.6666H57.4488L62.9955 6.22212H65.84L71.4044 18.6666H68.3822L67.28 15.9999ZM66.3733 13.8133L64.3999 9.0488L62.4266 13.8133H66.3733Z" fill="#3F2855"/>
<path d="M72.6955 6.22212H75.5755V16.3199H81.8156V18.6666H72.6955V6.22212Z" fill="#3F2855"/>
<path d="M93.0603 16.3555V18.6666H83.4247V6.22212H92.8292V8.53324H86.287V11.2355H92.0648V13.4755H86.287V16.3555H93.0603Z" fill="#3F2855"/>
<path d="M106.676 18.6666L106.659 11.1999L102.996 17.3511H101.699L98.0541 11.3599V18.6666H95.3519V6.22212H97.7341L102.392 13.9555L106.979 6.22212H109.343L109.379 18.6666H106.676Z" fill="#3F2855"/>
<path d="M17.8997 5.65716C17.8997 8.77718 15.3625 11.3143 12.2425 11.3143C9.12248 11.3143 6.58533 8.77718 6.58533 5.65716C6.58533 2.53715 9.12248 0 12.2425 0C15.3625 0 17.8997 2.53715 17.8997 5.65716Z" fill="#3F2855"/>
<path d="M20.1454 8.8457C20.6768 8.9657 21.5511 9.25713 22.4425 9.92571C22.854 10.2343 24.0368 11.16 24.534 12.8571C24.6025 13.1143 25.2025 15.2057 23.9854 17.2629C23.454 18.1543 22.7854 18.7029 22.374 18.9943C22.1683 17.28 21.8425 15.3943 21.3968 13.4057C21.0025 11.76 20.5911 10.2514 20.1454 8.8457Z" fill="#3F2855"/>
<path d="M6.05405 8.86292C5.28262 11.1772 4.52833 13.9715 4.04833 17.1772C3.67119 19.6801 3.5169 21.9773 3.49976 24.0001C6.19119 24.0001 8.86549 24.0001 11.5569 24.0001C11.5569 22.1658 11.5569 20.3487 11.5569 18.5144C12.0712 18.5144 12.5855 18.5144 13.0998 18.5144C13.0998 20.3487 13.0998 22.1658 13.0998 24.0001C15.7912 24.0001 18.4655 24.0001 21.157 24.0001C21.157 21.9601 21.037 19.6287 20.6598 17.0744C20.1798 13.8344 19.4255 11.0401 18.637 8.74292C18.397 9.36006 17.9341 10.3544 16.9741 11.2115C14.5398 13.3715 10.2884 13.4229 7.80263 11.3144C6.80834 10.4915 6.31119 9.49721 6.05405 8.86292Z" fill="#3F2855"/>
<path d="M4.59664 8.74292C4.0652 8.86292 3.19092 9.15435 2.29948 9.82292C1.88805 10.1315 0.705193 11.0572 0.208048 12.7544C0.139477 13.0286 -0.460525 15.1201 0.756622 17.1601C1.28805 18.0515 1.95663 18.6001 2.36806 18.8915C2.57377 17.1772 2.89949 15.2915 3.3452 13.3029C3.72235 11.6572 4.15092 10.1486 4.59664 8.74292Z" fill="#3F2855"/>
</svg>
