<svg width="16" height="8" viewBox="0 0 16 8" fill="none" xmlns="http://www.w3.org/2000/svg">
<path d="M0.183314 4.44241C0.183502 4.4426 0.183658 4.44282 0.183877 4.443L3.44963 7.693C3.69428 7.93647 4.09 7.93557 4.33353 7.69088C4.57703 7.44622 4.57609 7.0505 4.33144 6.807L2.13881 4.625L15.375 4.625C15.7202 4.625 16 4.34519 16 4C16 3.65481 15.7202 3.375 15.375 3.375L2.13885 3.375L4.33141 1.193C4.57606 0.949503 4.577 0.553784 4.3335 0.309127C4.08997 0.0644089 3.69422 0.0635654 3.44959 0.307003L0.183845 3.557C0.183657 3.55719 0.183501 3.55741 0.183282 3.5576C-0.061499 3.80191 -0.060717 4.19891 0.183314 4.44241Z" fill="#0DBD68"/>
</svg>
