<svg width="48" height="48" viewBox="0 0 48 48" fill="none" xmlns="http://www.w3.org/2000/svg">
<rect width="48" height="48" rx="8" fill="#EEF3FF"/>
<g clip-path="url(#clip0)">
<path d="M29.2809 30.4999C29.2313 30.4999 29.1826 30.491 29.1346 30.4731L18.5721 26.4106C18.4153 26.3505 18.3121 26.1993 18.3121 26.0312V21.1562C18.3121 20.988 18.4153 20.8368 18.5721 20.7767L29.1346 16.7142C29.2606 16.6655 29.3995 16.6833 29.5108 16.7589C29.6213 16.8345 29.6871 16.9596 29.6871 17.0937V30.0937C29.6871 30.2277 29.6213 30.3528 29.5108 30.4284C29.4418 30.4755 29.3621 30.4999 29.2809 30.4999ZM19.1246 25.7517L28.8746 29.5022V17.6852L19.1246 21.4357V25.7517Z" fill="#3F2855"/>
<path d="M18.7188 26.4371H15.875C14.9788 26.4371 14.25 25.7083 14.25 24.8121V22.3746C14.25 21.4784 14.9788 20.7496 15.875 20.7496H18.7188C18.943 20.7496 19.125 20.9316 19.125 21.1559V26.0309C19.125 26.2551 18.943 26.4371 18.7188 26.4371ZM15.875 21.5621C15.4265 21.5621 15.0625 21.9261 15.0625 22.3746V24.8121C15.0625 25.2606 15.4265 25.6246 15.875 25.6246H18.3125V21.5621H15.875Z" fill="#3F2855"/>
<path d="M20.3437 32.125H17.9062C17.7039 32.125 17.5324 31.9763 17.504 31.7756L16.6915 26.0881C16.6598 25.8663 16.8142 25.6607 17.0368 25.629C17.2546 25.6014 17.4642 25.7517 17.4959 25.9743L18.2588 31.3125H19.8887L19.3459 26.4748C19.3216 26.2522 19.4816 26.0515 19.7043 26.0255C19.9196 26.002 20.1276 26.1612 20.1536 26.3838L20.7467 31.6732C20.7597 31.7886 20.7231 31.9032 20.6459 31.9893C20.5696 32.0754 20.4599 32.125 20.3437 32.125Z" fill="#3F2855"/>
<path d="M30.9059 21.5625C30.7751 21.5625 30.6467 21.4992 30.5679 21.3813C30.4436 21.1953 30.494 20.9426 30.6809 20.8183L33.1184 19.1933C33.3036 19.0698 33.5563 19.1185 33.6814 19.3062C33.8058 19.4923 33.7554 19.745 33.5685 19.8693L31.131 21.4943C31.0619 21.5406 30.9839 21.5625 30.9059 21.5625Z" fill="#3F2855"/>
<path d="M33.3435 28.8752C33.2655 28.8752 33.1875 28.8532 33.1184 28.8069L30.6809 27.1819C30.4948 27.0576 30.4437 26.8049 30.568 26.6188C30.6931 26.432 30.9466 26.3824 31.131 26.5059L33.5685 28.1309C33.7546 28.2552 33.8058 28.5079 33.6815 28.694C33.6027 28.8118 33.4743 28.8752 33.3435 28.8752Z" fill="#3F2855"/>
<path d="M33.3434 24.4066H30.9059C30.6816 24.4066 30.4996 24.2246 30.4996 24.0004C30.4996 23.7761 30.6816 23.5941 30.9059 23.5941H33.3434C33.5676 23.5941 33.7496 23.7761 33.7496 24.0004C33.7496 24.2246 33.5676 24.4066 33.3434 24.4066Z" fill="#3F2855"/>
</g>
<defs>
<clipPath id="clip0">
<rect width="19.5" height="19.5" fill="white" transform="translate(14.25 14.25)"/>
</clipPath>
</defs>
</svg>
