<svg width="48" height="48" viewBox="0 0 48 48" fill="none" xmlns="http://www.w3.org/2000/svg">
<rect width="48" height="48" rx="8" fill="#EEF3FF"/>
<g clip-path="url(#clip0)">
<path d="M17.4127 29.5563C17.9647 29.5563 18.4424 29.3583 18.8328 28.9679C19.2232 28.5776 19.4212 28.0997 19.4212 27.5479C19.4212 26.9961 19.2232 26.5182 18.8328 26.1279C18.4422 25.7375 17.9645 25.5396 17.4127 25.5396C16.8608 25.5396 16.3831 25.7375 15.9927 26.1279C15.6023 26.5182 15.4043 26.996 15.4043 27.5479C15.4043 28.0998 15.6023 28.5776 15.9928 28.9679C16.3832 29.3583 16.8609 29.5563 17.4127 29.5563ZM16.8013 26.9364C16.9742 26.7636 17.1684 26.6831 17.4127 26.6831C17.657 26.6831 17.8513 26.7636 18.0242 26.9364C18.1971 27.1093 18.2777 27.3036 18.2777 27.5479C18.2777 27.792 18.1972 27.9863 18.0242 28.1594C17.8513 28.3322 17.657 28.4127 17.4127 28.4127C17.1686 28.4127 16.9743 28.3322 16.8013 28.1592C16.6284 27.9863 16.5479 27.7922 16.5479 27.5479C16.5479 27.3036 16.6284 27.1093 16.8013 26.9364Z" fill="#3F2855"/>
<path d="M20.5865 31.3025C20.5562 31.1329 20.5166 30.9716 20.4692 30.8233C20.4174 30.6616 20.3473 30.5025 20.2609 30.3503C20.1664 30.1841 20.0541 30.0383 19.9269 29.9165C19.7864 29.7822 19.6168 29.675 19.4224 29.598C19.2296 29.5217 19.0185 29.483 18.7947 29.483C18.607 29.483 18.46 29.5685 18.3252 29.6563C18.2444 29.7091 18.1529 29.768 18.0515 29.8329C18.0088 29.8601 17.9269 29.9025 17.779 29.9503C17.5596 30.0214 17.3516 30.0214 17.1319 29.9503C16.9842 29.9025 16.9022 29.8601 16.8598 29.833C16.758 29.768 16.6667 29.7091 16.5853 29.656C16.4508 29.5685 16.3038 29.483 16.1162 29.483C15.8925 29.483 15.6812 29.5218 15.4885 29.5981C15.2942 29.675 15.1245 29.7822 14.9836 29.9168C14.8567 30.0385 14.7445 30.1843 14.6502 30.3503C14.5638 30.5024 14.4937 30.6616 14.4419 30.8233C14.3945 30.9714 14.355 31.1327 14.3245 31.3023C14.2948 31.4679 14.2745 31.6258 14.2644 31.7717C14.2549 31.9102 14.25 32.0538 14.25 32.1985C14.25 32.772 14.495 33.1258 14.7008 33.3216C14.9918 33.5988 15.3686 33.7392 15.8206 33.7392H19.0905C19.5425 33.7392 19.9193 33.5986 20.2104 33.3216C20.4161 33.126 20.6612 32.7723 20.6612 32.1984C20.6612 32.0532 20.6562 31.9095 20.6467 31.7715C20.6364 31.6262 20.6163 31.4683 20.5865 31.3025ZM19.4221 32.4932C19.376 32.5371 19.2913 32.5956 19.0905 32.5956H15.8206C15.6198 32.5956 15.5351 32.5373 15.4891 32.4934C15.4446 32.451 15.3936 32.3791 15.3936 32.1985C15.3936 32.08 15.3975 31.963 15.4052 31.8508C15.4125 31.746 15.4275 31.6295 15.45 31.5045C15.4717 31.3841 15.4988 31.2721 15.5309 31.1718C15.5588 31.0853 15.5968 30.9988 15.6445 30.9152C15.6839 30.8457 15.7278 30.7876 15.7743 30.7429C15.8077 30.7111 15.8532 30.6836 15.9096 30.6613C15.936 30.6507 15.9649 30.6427 15.9959 30.6369C16.0705 30.6854 16.1534 30.7388 16.2446 30.7969C16.3908 30.8902 16.5661 30.9692 16.7802 31.0382C17.2243 31.182 17.6868 31.182 18.1306 31.0384C18.345 30.9692 18.5202 30.8902 18.6668 30.7966C18.7577 30.7386 18.8405 30.6852 18.9151 30.6369C18.946 30.6425 18.9749 30.6507 19.0014 30.6611C19.0578 30.6836 19.1033 30.7111 19.1365 30.7428C19.1832 30.7876 19.2271 30.8456 19.2666 30.9152C19.3142 30.999 19.3523 31.0853 19.3801 31.1718C19.4123 31.2723 19.4395 31.3841 19.4611 31.5042C19.4835 31.6296 19.4986 31.7463 19.5059 31.8508V31.8511C19.5136 31.9627 19.5176 32.0797 19.5176 32.1985C19.5176 32.3791 19.4666 32.451 19.4221 32.4932Z" fill="#3F2855"/>
<path d="M28.4929 27.5479C28.4929 28.0998 28.6908 28.5776 29.0813 28.9679C29.4718 29.3583 29.9496 29.5563 30.5014 29.5563C31.0532 29.5563 31.531 29.3583 31.9214 28.9679C32.3118 28.5776 32.5096 28.0997 32.5096 27.5479C32.5096 26.9961 32.3118 26.5182 31.9213 26.1279C31.5309 25.7375 31.0532 25.5396 30.5012 25.5396C29.9494 25.5396 29.4716 25.7375 29.0813 26.1279C28.6908 26.5182 28.4929 26.9961 28.4929 27.5479ZM29.8899 26.9364C30.0628 26.7636 30.2571 26.6831 30.5014 26.6831C30.7455 26.6831 30.9399 26.7636 31.1128 26.9364C31.2857 27.1095 31.3662 27.3038 31.3662 27.5479C31.3662 27.7922 31.2857 27.9865 31.1128 28.1594C30.9399 28.3322 30.7456 28.4127 30.5014 28.4127C30.2571 28.4127 30.0628 28.3322 29.8899 28.1594C29.7169 27.9865 29.6364 27.7922 29.6364 27.5479C29.6364 27.3036 29.717 27.1093 29.8899 26.9364Z" fill="#3F2855"/>
<path d="M33.7351 31.7715C33.725 31.6262 33.7049 31.4683 33.6752 31.3025C33.6447 31.1329 33.6052 30.9716 33.5576 30.8233C33.506 30.6616 33.4359 30.5025 33.3494 30.3503C33.255 30.1841 33.1427 30.0383 33.0155 29.9165C32.8751 29.7822 32.7053 29.675 32.5109 29.598C32.3181 29.5217 32.107 29.483 31.8833 29.483C31.6956 29.483 31.5486 29.5685 31.4138 29.6563C31.3329 29.7091 31.2415 29.768 31.1401 29.8329C31.0974 29.8601 31.0154 29.9025 30.8677 29.9503C30.6481 30.0214 30.4402 30.0214 30.2204 29.9503C30.0726 29.9025 29.9908 29.8601 29.9484 29.833C29.8466 29.768 29.7553 29.7091 29.6739 29.6561C29.5394 29.5685 29.3924 29.483 29.2048 29.483C28.9809 29.483 28.7698 29.5218 28.5772 29.5981C28.3829 29.675 28.2131 29.7822 28.0722 29.9168C27.9452 30.0385 27.833 30.1843 27.7387 30.3503C27.6522 30.5024 27.5822 30.6616 27.5304 30.8233C27.4831 30.9714 27.4435 31.1327 27.4132 31.3023C27.3834 31.4679 27.3632 31.6258 27.3531 31.7717C27.3435 31.9102 27.3386 32.0538 27.3386 32.1985C27.3386 32.772 27.5837 33.1258 27.7894 33.3216C28.0804 33.5988 28.4572 33.7392 28.9092 33.7392H32.1791C32.6311 33.7392 33.0079 33.5986 33.2991 33.3216C33.5047 33.126 33.7499 32.7723 33.7499 32.1984C33.7497 32.053 33.7448 31.9095 33.7351 31.7715ZM32.5106 32.4932C32.4645 32.5371 32.3798 32.5956 32.179 32.5956H28.9092C28.7084 32.5956 28.6237 32.5373 28.5778 32.4934C28.5333 32.451 28.4821 32.3791 28.4821 32.1985C28.4821 32.0801 28.4861 31.963 28.4938 31.8508C28.5011 31.746 28.5162 31.6295 28.5386 31.5045C28.5602 31.3841 28.5874 31.2721 28.6196 31.172C28.6472 31.0853 28.6855 30.999 28.7329 30.9152C28.7725 30.8457 28.8164 30.7876 28.863 30.7429C28.8963 30.7111 28.9417 30.6836 28.9982 30.6613C29.0247 30.6508 29.0534 30.6427 29.0845 30.6369C29.1592 30.6855 29.242 30.7388 29.3331 30.7969C29.4793 30.8902 29.6547 30.9692 29.8687 31.0384C30.3129 31.182 30.7753 31.182 31.2192 31.0384C31.4335 30.9692 31.6087 30.8902 31.7553 30.7968C31.8462 30.7386 31.929 30.6854 32.0036 30.6369C32.0346 30.6427 32.0634 30.6507 32.0898 30.6611C32.1462 30.6836 32.1918 30.7111 32.2249 30.7428C32.2718 30.7877 32.3155 30.8457 32.3553 30.9152C32.4027 30.999 32.4409 31.0853 32.4686 31.1718C32.5008 31.2723 32.528 31.3841 32.5496 31.5042C32.572 31.6296 32.587 31.7463 32.5943 31.8508V31.8511C32.6022 31.9627 32.6061 32.0797 32.6062 32.1985C32.6061 32.3791 32.5551 32.451 32.5106 32.4932Z" fill="#3F2855"/>
<path d="M23.9569 18.2667C24.5089 18.2667 24.9866 18.0689 25.377 17.6785C25.7673 17.2881 25.9654 16.8102 25.9654 16.2584C25.9654 15.7066 25.7675 15.2288 25.377 14.8382C24.9866 14.448 24.5087 14.25 23.9569 14.25C23.405 14.25 22.9273 14.448 22.5369 14.8384C22.1465 15.2288 21.9485 15.7066 21.9485 16.2584C21.9485 16.8104 22.1465 17.2881 22.537 17.6785C22.9274 18.0689 23.4051 18.2667 23.9569 18.2667ZM23.3456 15.647C23.5183 15.4741 23.7126 15.3936 23.9569 15.3936C24.2012 15.3936 24.3955 15.4741 24.5684 15.647C24.7414 15.82 24.8219 16.0143 24.8219 16.2584C24.8219 16.5027 24.7414 16.697 24.5684 16.8699C24.3955 17.0428 24.2012 17.1233 23.9569 17.1233C23.7128 17.1233 23.5185 17.0428 23.3455 16.8699C23.1726 16.697 23.0921 16.5027 23.0921 16.2584C23.0921 16.0142 23.1726 15.8199 23.3456 15.647Z" fill="#3F2855"/>
<path d="M27.1908 20.4819C27.1807 20.3365 27.1605 20.1788 27.1309 20.0131C27.1004 19.8435 27.0608 19.6822 27.0134 19.5338C26.9616 19.3722 26.8915 19.213 26.8051 19.061C26.7108 18.8948 26.5983 18.7488 26.4712 18.6271C26.3308 18.4929 26.161 18.3857 25.9664 18.3086C25.7736 18.2323 25.5625 18.1936 25.3389 18.1936C25.151 18.1936 25.004 18.2791 24.8694 18.3669C24.7886 18.4197 24.6971 18.4785 24.5956 18.5434C24.5529 18.5707 24.471 18.6131 24.3232 18.6609C24.1039 18.7319 23.8958 18.732 23.6759 18.6608C23.5283 18.6131 23.4464 18.5707 23.404 18.5437C23.3022 18.4785 23.2107 18.4197 23.1296 18.3668C22.9951 18.2791 22.8482 18.1936 22.6604 18.1936C22.4366 18.1936 22.2255 18.2323 22.0327 18.3086C21.8384 18.3857 21.6687 18.4928 21.5279 18.6274C21.4009 18.749 21.2886 18.8949 21.1944 19.0608C21.108 19.2128 21.0379 19.372 20.986 19.5339C20.9386 19.6822 20.8991 19.8433 20.8687 20.013C20.839 20.1785 20.8187 20.3364 20.8086 20.4823C20.7991 20.6208 20.7942 20.7644 20.7942 20.9092C20.7942 21.4827 21.0392 21.8363 21.245 22.0322C21.536 22.3093 21.9128 22.4497 22.3648 22.4497H25.6347C26.0866 22.4497 26.4635 22.3093 26.7546 22.0322C26.9602 21.8366 27.2053 21.4828 27.2053 20.909C27.2053 20.7635 27.2005 20.6198 27.1908 20.4819ZM25.9663 21.2039C25.9202 21.2478 25.8355 21.3062 25.6347 21.3062H22.3649C22.1639 21.3062 22.0794 21.2478 22.0335 21.204C21.9888 21.1616 21.9378 21.0898 21.9378 20.9092C21.9378 20.7906 21.9417 20.6737 21.9494 20.5613C21.9567 20.4566 21.9719 20.3401 21.9942 20.215C22.0159 20.0948 22.0431 19.9827 22.0751 19.8825C22.1029 19.7957 22.141 19.7095 22.1886 19.6258C22.2282 19.5562 22.272 19.4982 22.3187 19.4536C22.352 19.4216 22.3975 19.3942 22.4538 19.3719C22.4802 19.3613 22.5091 19.3533 22.5402 19.3475C22.6149 19.396 22.6977 19.4492 22.7888 19.5076C22.9352 19.6008 23.1106 19.6798 23.3244 19.7489C23.7683 19.8924 24.2314 19.8924 24.6748 19.749C24.889 19.6798 25.0643 19.6008 25.211 19.5073C25.3019 19.4492 25.3846 19.396 25.4593 19.3475C25.4904 19.3531 25.5191 19.3613 25.5456 19.3717C25.6019 19.3941 25.6475 19.4216 25.6808 19.4536C25.7275 19.4982 25.7712 19.5562 25.811 19.626C25.8584 19.7096 25.8967 19.7959 25.9243 19.8823C25.9565 19.9829 25.9837 20.0948 26.0053 20.2148C26.0277 20.3403 26.0428 20.4569 26.05 20.5615V20.5618C26.0578 20.6734 26.0618 20.7903 26.0618 20.9092C26.0618 21.0898 26.0108 21.1615 25.9663 21.2039Z" fill="#3F2855"/>
<path d="M25.7451 31.2653H22.1689C21.8532 31.2653 21.5972 31.5211 21.5972 31.837C21.5972 32.1527 21.8532 32.4087 22.1689 32.4087H25.7451C26.061 32.4087 26.317 32.1527 26.317 31.837C26.317 31.5211 26.061 31.2653 25.7451 31.2653Z" fill="#3F2855"/>
<path d="M20.4965 22.8568C20.2399 22.6728 19.8827 22.7319 19.6988 22.9885L18.7186 24.3563C18.5347 24.6131 18.5937 24.9701 18.8504 25.1542C18.9512 25.2265 19.0676 25.2613 19.1829 25.2613C19.361 25.2613 19.5365 25.1783 19.6482 25.0225L20.6284 23.6545C20.8122 23.3979 20.7533 23.0407 20.4965 22.8568Z" fill="#3F2855"/>
<path d="M28.7315 25.2611C28.8466 25.2611 28.9631 25.2264 29.064 25.1541C29.3208 24.9701 29.3797 24.613 29.1958 24.3563L28.2155 22.9884C28.0315 22.7317 27.6743 22.6727 27.4177 22.8566C27.161 23.0407 27.1021 23.3977 27.286 23.6545L28.2661 25.0223C28.3778 25.1782 28.5532 25.2611 28.7315 25.2611Z" fill="#3F2855"/>
</g>
<defs>
<clipPath id="clip0">
<rect width="19.5001" height="19.5" fill="white" transform="translate(14.25 14.25)"/>
</clipPath>
</defs>
</svg>
