<svg width="48" height="48" viewBox="0 0 48 48" fill="none" xmlns="http://www.w3.org/2000/svg">
<rect width="48" height="48" rx="8" fill="#EEF3FF"/>
<g clip-path="url(#clip0)">
<path d="M22.012 21.6416C22.012 21.2079 21.6595 20.8553 21.2257 20.8553C20.792 20.8553 20.4395 21.2079 20.4395 21.6416C20.4395 22.0753 20.792 22.4279 21.2257 22.4279C21.6595 22.4279 22.012 22.0753 22.012 21.6416ZM21.2257 21.7988C21.1393 21.7988 21.0685 21.7281 21.0685 21.6416C21.0685 21.5551 21.1393 21.4843 21.2257 21.4843C21.3122 21.4843 21.383 21.5551 21.383 21.6416C21.383 21.7281 21.3122 21.7988 21.2257 21.7988Z" fill="#3F2855"/>
<path d="M26.5724 20.8553C26.1387 20.8553 25.7861 21.2079 25.7861 21.6416C25.7861 22.0753 26.1387 22.4279 26.5724 22.4279C27.0061 22.4279 27.3587 22.0753 27.3587 21.6416C27.3587 21.2079 27.0061 20.8553 26.5724 20.8553ZM26.5724 21.7988C26.4859 21.7988 26.4152 21.7281 26.4152 21.6416C26.4152 21.5551 26.4859 21.4843 26.5724 21.4843C26.6589 21.4843 26.7297 21.5551 26.7297 21.6416C26.7297 21.7281 26.6589 21.7988 26.5724 21.7988Z" fill="#3F2855"/>
<path d="M29.8748 21.7984V20.7555C30.4802 21.3464 31.549 22.1129 33.02 22.1129H33.3345V21.7984C33.3345 19.7691 32.1314 18.9171 31.3049 18.5693C31.716 18.2859 32.0667 17.9176 32.3274 17.4832C32.5699 17.0791 32.7271 16.6369 32.7938 16.1695L33.0681 14.25H32.0267C31.3848 14.25 30.7545 14.4246 30.2041 14.7548C29.6254 15.102 29.1602 15.6043 28.8583 16.2079L28.6526 16.6193C27.5603 15.1832 25.8386 14.25 23.899 14.25C20.6038 14.25 17.9232 16.9306 17.9232 20.2258V21.7984C17.9232 24.3155 19.4898 26.4696 21.6974 27.3487V27.4874L18.8151 27.7544C17.3624 27.978 16.1399 29.0291 15.7018 30.4325L14.6648 33.75H33.1332L32.0962 30.4322C31.6578 29.0288 30.4356 27.9777 28.9636 27.7519L26.1006 27.4874V27.3487C28.3082 26.4696 29.8748 24.3155 29.8748 21.7984ZM32.6925 21.4681C31.0511 21.3112 30.0295 20.0198 29.8521 19.7782C29.8383 19.5908 29.815 19.4065 29.7842 19.2244L30.4217 19.0118C30.4551 19.0008 30.4868 18.9863 30.5196 18.9743C30.847 19.0332 32.5274 19.432 32.6925 21.4681ZM29.4213 16.4894C29.6694 15.993 30.0522 15.5798 30.5284 15.2942C30.9809 15.0228 31.499 14.879 32.027 14.879H32.3428L32.1711 16.0805C32.116 16.4645 31.9874 16.8275 31.788 17.1596C31.4329 17.7512 30.8772 18.1972 30.2223 18.4155L29.6458 18.6076C29.5074 18.1163 29.3077 17.6518 29.0555 17.2206L29.4213 16.4894ZM23.899 14.879C25.7461 14.879 27.3772 15.821 28.3381 17.2492L28.3356 17.2546L28.3437 17.2587C28.629 17.6845 28.8548 18.1531 29.0089 18.6532H18.789C19.4621 16.4702 21.498 14.879 23.899 14.879ZM18.5522 21.7984V20.2258C18.5522 19.9034 18.5859 19.5892 18.6406 19.2823H29.1571C29.2121 19.5892 29.2458 19.9034 29.2458 20.2258V21.7984C29.2458 22.2324 29.1882 22.6523 29.0901 23.0565H26.4151C25.5291 23.0565 24.6824 22.6331 24.1506 21.9239L23.899 21.5889L23.6474 21.9239C23.1155 22.6331 22.2689 23.0565 21.3829 23.0565H18.7079C18.6098 22.6523 18.5522 22.2324 18.5522 21.7984ZM18.9149 33.121L19.1781 31.2785L18.5554 31.1895L18.2792 33.121H15.5203L16.3019 30.6196C16.6695 29.4443 17.6936 28.5633 18.8919 28.3784L19.9811 28.2777C20.3645 29.2037 21.4917 31.5084 23.7505 33.121H18.9149ZM24.9259 33.121C22.4321 31.7299 21.1237 29.2958 20.6431 28.2167L21.8128 28.1085L21.8757 28.2554C22.4116 29.5053 23.2354 30.6388 24.2585 31.5339C24.9495 32.1387 25.7254 32.6344 26.5651 33.0077L26.8196 33.121H24.9259ZM22.3264 27.71V27.5572C22.8284 27.6946 23.3539 27.7742 23.899 27.7742C24.444 27.7742 24.9696 27.6946 25.4716 27.5572V27.71L25.3442 28.0076C24.9863 28.842 24.4956 29.6022 23.8958 30.2812C23.3005 29.6047 22.8082 28.8344 22.4538 28.0076L22.3264 27.71ZM27.169 28.2177C26.9328 28.7995 26.5013 29.75 25.9141 30.5724L26.4258 30.9379C27.1196 29.9664 27.5971 28.8593 27.8229 28.278L28.8869 28.3762C30.1044 28.5636 31.1285 29.4443 31.4961 30.6199L32.2777 33.121H29.5188L29.2429 31.1892L28.6202 31.2782L28.8831 33.121H28.3692L26.8208 32.4328C26.4246 32.2567 26.0437 32.0507 25.6804 31.8173C25.8006 31.7006 25.9194 31.5745 26.0361 31.4377L25.5577 31.0298C25.4238 31.1867 25.2873 31.3226 25.1508 31.4477C24.9872 31.3241 24.8274 31.1955 24.673 31.0603C24.5554 30.9574 24.4406 30.8508 24.3286 30.7413C24.9907 30.001 25.5307 29.1694 25.9223 28.2551L25.9852 28.1082L27.169 28.2177ZM23.899 27.1452C21.6156 27.1452 19.6675 25.7037 18.9026 23.6855H21.3829C22.3352 23.6855 23.2501 23.2857 23.899 22.5998C24.5478 23.2857 25.4628 23.6855 26.4151 23.6855H28.8954C28.1302 25.7037 26.1824 27.1452 23.899 27.1452Z" fill="#3F2855"/>
<path d="M27.773 20.2089L27.574 19.6125L24.7435 20.5569L24.9425 21.1533L27.773 20.2089Z" fill="#3F2855"/>
<path d="M23.0544 20.5561L20.2236 19.6126L20.0248 20.2091L22.8556 21.1526L23.0544 20.5561Z" fill="#3F2855"/>
</g>
<defs>
<clipPath id="clip0">
<rect width="19.5" height="19.5" fill="white" transform="translate(14.25 14.25)"/>
</clipPath>
</defs>
</svg>
