<?xml version="1.0"?>
<svg xmlns="http://www.w3.org/2000/svg" xmlns:xlink="http://www.w3.org/1999/xlink" xmlns:svgjs="http://svgjs.com/svgjs" version="1.1" width="512" height="512" x="0" y="0" viewBox="0 0 512 512" style="enable-background:new 0 0 512 512" xml:space="preserve" class=""><rect width="512" height="512" rx="20" ry="20" fill="#ff9422" shape="rounded" transform="matrix(0.94,0,0,0.94,15.360000000000014,15.360000000000014)"/><g transform="matrix(0.8800000000000001,0,0,0.8800000000000001,30.71999999999997,30.71999999999997)"><g xmlns="http://www.w3.org/2000/svg"><g><g><g><g><g><g><circle cx="256" cy="256" fill="#ff9500" r="256" data-original="#ff9500" style="" class=""/></g></g></g></g></g></g><path d="m512 256c0-19.96-2.285-39.386-6.606-58.032l-63.637-63.637-23.905 47.094-74.919-13.543-72.06 45.754-35.308-35.308-112.255-11.243-73.189 87.664 61.756 61.756-41.634 61.164 127.725 127.725c18.646 4.321 38.072 6.606 58.032 6.606 141.385 0 256-114.615 256-256z" fill="#fe6a16" data-original="#fe6a16" style="" class=""/><g><path d="m222.476 268.065v-26.633h-11.354c-1.296-5.126-3.323-9.961-5.964-14.388l8.032-8.032-18.833-18.833-8.031 8.031c-4.427-2.641-9.262-4.668-14.388-5.964v-11.353h-26.633v11.353c-5.126 1.296-9.961 3.323-14.388 5.964l-8.032-8.032-18.833 18.833 8.032 8.032c-2.641 4.427-4.668 9.262-5.965 14.388h-11.353v26.633h11.354c1.296 5.126 3.324 9.961 5.964 14.388l-8.032 8.032 18.833 18.833 8.032-8.032c4.426 2.641 9.262 4.668 14.388 5.964v11.353h26.633v-11.352c5.126-1.296 9.961-3.323 14.388-5.964l8.031 8.032 18.833-18.833-8.031-8.031c2.641-4.427 4.668-9.262 5.964-14.388h11.353zm-37.782-13.316c0 14.4-11.673 26.073-26.073 26.073s-26.073-11.673-26.073-26.073 11.673-26.073 26.073-26.073 26.073 11.673 26.073 26.073z" fill="#636978" data-original="#636978" style="" class=""/></g><g><path d="m222.476 268.065v-13.414h-37.785c0 .033.002.065.002.097 0 14.4-11.673 26.073-26.073 26.073s-26.073-11.673-26.073-26.073c0-.033.002-.065.002-.097h-37.783v13.414h11.354c1.296 5.126 3.323 9.961 5.964 14.388l-8.032 8.031 18.833 18.833 8.032-8.032c4.427 2.641 9.262 4.668 14.388 5.964v11.354h26.634v-11.353c5.126-1.296 9.961-3.323 14.388-5.964l8.031 8.031 18.833-18.833-8.031-8.031c2.641-4.427 4.668-9.262 5.964-14.388z" fill="#414952" data-original="#414952" style="" class=""/></g><g><path d="m417.234 270.568v-26.633h-11.354c-1.296-5.126-3.323-9.961-5.964-14.388l8.032-8.031-18.833-18.833-8.032 8.031c-4.426-2.641-9.262-4.668-14.388-5.964v-11.354h-26.633v11.354c-5.126 1.296-9.961 3.323-14.388 5.964l-8.032-8.032-18.833 18.833 8.032 8.032c-2.641 4.427-4.668 9.262-5.964 14.388h-11.354v26.633h11.354c1.296 5.126 3.323 9.961 5.964 14.388l-8.032 8.031 18.833 18.833 8.032-8.032c4.427 2.641 9.262 4.668 14.388 5.964v11.353h26.633v-11.353c5.126-1.296 9.961-3.323 14.388-5.964l8.031 8.031 18.833-18.833-8.031-8.031c2.641-4.427 4.668-9.262 5.964-14.388h11.354zm-37.782-13.317c0 14.4-11.673 26.073-26.073 26.073s-26.073-11.673-26.073-26.073 11.673-26.073 26.073-26.073 26.073 11.674 26.073 26.073z" fill="#636978" data-original="#636978" style="" class=""/></g><g><path d="m417.234 270.568v-15.917h-37.912c.085.855.13 1.722.13 2.6 0 14.4-11.673 26.073-26.073 26.073s-26.073-11.673-26.073-26.073c0-.878.045-1.745.13-2.6h-37.912v15.917h11.354c1.296 5.126 3.323 9.961 5.964 14.388l-8.031 8.031 18.833 18.833 8.032-8.032c4.427 2.641 9.261 4.668 14.388 5.964v11.353h26.634v-11.353c5.126-1.296 9.961-3.323 14.388-5.964l8.031 8.031 18.833-18.833-8.031-8.031c2.641-4.427 4.668-9.262 5.964-14.388h11.351z" fill="#414952" data-original="#414952" style="" class=""/></g><path d="m50.121 254.749h30c0-.033.002.033.002 0h-30.001c0 .032-.001-.033-.001 0z" fill="#ffffff" data-original="#ffffff" style="" class=""/><g><path d="m441.757 134.331-29.754 3.831 3.916 30.415c-18.047-12.733-39.804-19.826-62.54-19.826-42.183 0-78.821 24.198-96.762 59.441-17.456-36.596-54.821-61.944-97.996-61.944-59.827 0-108.5 48.673-108.5 108.5h30c0-43.285 35.215-78.5 78.5-78.5s78.5 35.117 78.5 78.403l18.287 3.159 19.534-3.159c1.318-42.139 35.984-75.9 78.437-75.9 17.126 0 33.486 5.564 46.849 15.506l-35.007 4.506 3.83 29.754 83.449-10.742z" fill="#ffffff" data-original="#ffffff" style="" class=""/><path d="m431.879 257.251c0 43.285-35.215 78.5-78.5 78.5s-78.5-35.215-78.5-78.5c0-.872.038-1.735.066-2.6h-37.826c0 .033.002-.033.002 0 0 43.285-35.215 78.597-78.5 78.597-17.126 0-33.486-5.564-46.85-15.506l35.007-4.507-3.83-29.754-83.449 10.742 10.744 83.445 29.754-3.831-3.916-30.415c18.047 12.733 39.804 19.826 62.54 19.826 42.183 0 78.821-24.198 96.762-59.441 17.456 36.596 54.821 61.944 97.996 61.944 59.827 0 108.5-48.673 108.5-108.5z" fill="#e9edf5" data-original="#e9edf5" style="" class=""/></g></g><script/></g></svg>
