<svg width="20" height="20" viewBox="0 0 20 20" fill="none" xmlns="http://www.w3.org/2000/svg">
<path d="M9.99975 13.7061C9.44061 13.7061 8.97192 14.1747 8.97192 14.7339C8.97192 15.293 9.44061 15.7617 9.99975 15.7617C10.5383 15.7617 11.0276 15.293 11.0029 14.7585C11.0276 14.1706 10.563 13.7061 9.99975 13.7061Z" fill="#FF0101"/>
<path d="M19.5133 17.3489C20.1588 16.2347 20.1629 14.9067 19.5215 13.7967L13.0832 2.64682C12.446 1.52443 11.2948 0.858398 10.0039 0.858398C8.71291 0.858398 7.56174 1.52854 6.92449 2.64271L0.477959 13.8049C-0.163405 14.9273 -0.159294 16.2635 0.490293 17.3776C1.13166 18.4795 2.27871 19.1414 3.56144 19.1414H16.4216C17.7085 19.1414 18.8637 18.4712 19.5133 17.3489ZM18.1155 16.543C17.7578 17.1597 17.1247 17.5256 16.4175 17.5256H3.55733C2.85841 17.5256 2.22938 17.168 1.87992 16.5636C1.52634 15.951 1.52223 15.2192 1.8758 14.6025L8.32234 3.44441C8.6718 2.83183 9.29672 2.47003 10.0039 2.47003C10.7069 2.47003 11.3359 2.83594 11.6854 3.44852L18.1278 14.6066C18.4732 15.2069 18.469 15.9305 18.1155 16.543Z" fill="#FF0101"/>
<path d="M9.74465 6.49093C9.25541 6.63072 8.95117 7.07474 8.95117 7.61332C8.97584 7.93811 8.9964 8.26702 9.02106 8.59181C9.09096 9.82931 9.16085 11.0422 9.23074 12.2797C9.25541 12.699 9.5802 13.0032 9.99956 13.0032C10.4189 13.0032 10.7478 12.6785 10.7684 12.255C10.7684 12.0001 10.7684 11.7657 10.793 11.5067C10.8383 10.7132 10.8876 9.91976 10.9328 9.12628C10.9575 8.61237 11.0027 8.09845 11.0274 7.58454C11.0274 7.39953 11.0027 7.23508 10.9328 7.07063C10.7231 6.61016 10.2339 6.37581 9.74465 6.49093Z" fill="#FF0101"/>
</svg>
