<svg width="16" height="20" viewBox="0 0 16 20" fill="none" xmlns="http://www.w3.org/2000/svg">
<path d="M7.99995 3.03296C5.59626 3.03296 3.64062 4.98851 3.64062 7.39221C3.64062 9.7959 5.59626 11.7515 7.99995 11.7515C10.4036 11.7515 12.3593 9.7959 12.3593 7.39221C12.3593 4.98851 10.4036 3.03296 7.99995 3.03296ZM7.99995 10.5788C6.24279 10.5788 4.81316 9.14929 4.81316 7.39213C4.81316 5.63497 6.24279 4.20549 7.99995 4.20549C9.75711 4.20549 11.1867 5.63505 11.1867 7.39221C11.1867 9.14937 9.75719 10.5788 7.99995 10.5788Z" fill="#3F2855"/>
<path d="M8.00003 0C3.92399 0 0.60791 3.31608 0.60791 7.39213C0.60791 9.74282 2.57933 13.245 3.75444 15.1234C4.52761 16.3591 5.35847 17.5353 6.09388 18.435C7.27431 19.8791 7.69682 19.9999 8.00011 19.9999C8.30794 19.9999 8.70684 19.879 9.88359 18.4341C10.6206 17.529 11.4519 16.3536 12.2243 15.1243C13.4074 13.2414 15.3922 9.7329 15.3922 7.39205C15.3922 3.31608 12.0762 0 8.00003 0ZM11.4114 14.2114C9.89524 16.6723 8.50329 18.3353 7.99308 18.7598C7.48021 18.3484 6.11085 16.725 4.5735 14.2191C2.79852 11.3257 1.78052 8.83731 1.78052 7.39213C1.78044 3.96262 4.57053 1.17253 8.00003 1.17253C11.4295 1.17253 14.2196 3.96262 14.2196 7.39213C14.2197 8.82903 13.1961 11.3145 11.4114 14.2114Z" fill="#3F2855"/>
</svg>
