<?xml version="1.0" encoding="UTF-8"?>
<svg xmlns="http://www.w3.org/2000/svg" xmlns:xlink="http://www.w3.org/1999/xlink" viewBox="0 0 128 128" width="128px" height="128px">
<g id="surface8119189">
<path style=" stroke:none;fill-rule:nonzero;fill:rgb(90.980393%,67.058825%,14.509805%);fill-opacity:1;" d="M 10.238281 128 C 4.585938 128 0 123.414062 0 117.761719 L 0 10.238281 C 0 4.585938 4.585938 0 10.238281 0 L 117.761719 0 C 123.414062 0 128 4.585938 128 10.238281 L 128 117.761719 C 128 123.414062 123.414062 128 117.761719 128 Z M 10.238281 128 "/>
<path style=" stroke:none;fill-rule:nonzero;fill:rgb(0%,0%,0%);fill-opacity:1;" d="M 63.78125 10.640625 C 56.015625 10.664062 48.136719 12.394531 40.6875 16.011719 C 27.964844 22.191406 18.222656 33.175781 13.597656 46.542969 C 3.949219 74.375 18.691406 104.753906 46.523438 114.402344 C 74.355469 124.050781 104.738281 109.308594 114.386719 81.476562 C 119.070312 68.097656 118.195312 53.402344 111.957031 40.671875 C 102.707031 21.632812 83.621094 10.574219 63.78125 10.640625 Z M 63.140625 14.292969 C 68.808594 14.195312 74.589844 15.074219 80.257812 17.039062 C 92.699219 21.351562 102.917969 30.429688 108.667969 42.277344 C 114.417969 54.121094 115.21875 67.769531 110.910156 80.210938 C 101.929688 106.117188 73.648438 119.839844 47.738281 110.863281 C 21.828125 101.882812 8.109375 73.601562 17.085938 47.691406 C 24.101562 27.449219 42.898438 14.644531 63.140625 14.292969 Z M 63.335938 20.425781 C 61.796875 20.402344 60.261719 20.464844 58.730469 20.609375 C 57.714844 20.640625 56.921875 21.492188 56.957031 22.507812 C 56.988281 23.523438 57.839844 24.316406 58.855469 24.28125 C 58.929688 24.28125 59.007812 24.273438 59.082031 24.261719 C 60.46875 24.117188 61.855469 24.046875 63.246094 24.050781 C 64.25 23.910156 64.953125 22.984375 64.8125 21.976562 C 64.703125 21.199219 64.109375 20.574219 63.335938 20.425781 Z M 51.21875 22.125 C 50.980469 22.097656 50.730469 22.121094 50.488281 22.195312 C 37.539062 26.132812 27.246094 36.007812 22.78125 48.785156 C 22.417969 49.734375 22.898438 50.796875 23.847656 51.15625 C 24.796875 51.515625 25.859375 51.042969 26.21875 50.09375 C 26.230469 50.0625 26.242188 50.027344 26.25 49.996094 L 26.1875 50.058594 C 30.261719 38.359375 39.6875 29.3125 51.542969 25.714844 C 52.515625 25.425781 53.066406 24.398438 52.777344 23.425781 C 52.558594 22.695312 51.929688 22.203125 51.21875 22.125 Z M 87.804688 32.261719 C 83.421875 32.261719 79.875 35.8125 79.875 40.195312 C 79.875 44.578125 83.425781 48.132812 87.804688 48.132812 C 88.933594 48.132812 90.003906 47.886719 90.976562 47.460938 L 85.15625 41.445312 C 85.035156 41.320312 84.96875 41.148438 84.976562 40.976562 C 84.980469 40.800781 85.0625 40.632812 85.191406 40.519531 L 92.585938 33.898438 C 91.253906 32.886719 89.609375 32.261719 87.804688 32.261719 Z M 93.554688 34.753906 L 86.546875 41.03125 L 92.148438 46.820312 C 94.308594 45.402344 95.738281 42.972656 95.738281 40.195312 C 95.738281 38.082031 94.898438 36.175781 93.554688 34.753906 Z M 93.40625 38.519531 C 93.65625 38.503906 93.898438 38.636719 94.019531 38.871094 C 94.050781 38.941406 94.835938 40.5625 93.785156 42.667969 C 93.671875 42.894531 93.445312 43.023438 93.210938 43.023438 C 93.113281 43.023438 93.015625 43 92.921875 42.953125 C 92.605469 42.796875 92.476562 42.414062 92.636719 42.09375 C 93.386719 40.589844 92.886719 39.484375 92.863281 39.441406 C 92.714844 39.121094 92.847656 38.738281 93.164062 38.585938 C 93.242188 38.546875 93.324219 38.523438 93.40625 38.519531 Z M 77.632812 44.972656 C 76.449219 45.023438 75.105469 45.308594 73.660156 45.828125 C 67.910156 47.898438 61.011719 55.488281 61.011719 55.488281 L 55.476562 61.910156 L 60.019531 66.371094 L 80.644531 45.53125 C 79.835938 45.105469 78.8125 44.921875 77.632812 44.972656 Z M 81.667969 46.328125 L 60.933594 67.277344 L 63.613281 69.910156 L 79.179688 54.121094 C 79.226562 54.078125 82.582031 50.761719 82.417969 47.820312 C 82.265625 47.238281 82.015625 46.730469 81.667969 46.328125 Z M 81.980469 52.734375 C 81.085938 54.046875 80.164062 54.957031 80.085938 55.035156 L 64.527344 70.808594 L 66.59375 72.84375 C 66.804688 72.652344 67.007812 72.476562 67.214844 72.28125 C 78.425781 61.882812 80.789062 57.449219 81.980469 52.734375 Z M 54.632812 62.886719 L 49.511719 68.828125 L 58.902344 67.082031 Z M 59.804688 67.972656 L 56.570312 71.320312 L 62.316406 70.4375 Z M 63.457031 71.566406 L 55.09375 72.851562 L 39.765625 88.71875 L 46.195312 95.042969 L 46.519531 95.050781 L 44.910156 88.378906 C 44.910156 88.378906 53.78125 84.351562 65.640625 73.707031 Z M 100.324219 73.421875 C 99.621094 73.550781 99.027344 74.085938 98.863281 74.832031 C 98.65625 75.765625 99.195312 76.703125 100.105469 76.988281 L 103.65625 77.9375 C 104.648438 78.15625 105.632812 77.535156 105.851562 76.542969 C 106.0625 75.609375 105.519531 74.671875 104.605469 74.386719 L 101.058594 73.4375 C 100.8125 73.382812 100.5625 73.378906 100.324219 73.421875 Z M 97.199219 82.082031 C 96.484375 82.019531 95.769531 82.382812 95.414062 83.054688 C 94.960938 83.90625 95.246094 84.964844 96.066406 85.476562 L 99.25 87.308594 C 100.136719 87.816406 101.269531 87.503906 101.773438 86.617188 C 102.28125 85.730469 101.972656 84.601562 101.082031 84.097656 L 97.898438 82.292969 C 97.675781 82.171875 97.4375 82.105469 97.199219 82.082031 Z M 91.289062 89.449219 C 90.820312 89.449219 90.351562 89.632812 89.992188 89.988281 C 89.277344 90.707031 89.277344 91.871094 89.992188 92.589844 L 92.59375 95.191406 C 93.308594 95.90625 94.472656 95.90625 95.191406 95.191406 C 95.90625 94.472656 95.90625 93.304688 95.191406 92.589844 L 92.59375 89.988281 C 92.234375 89.632812 91.761719 89.449219 91.289062 89.449219 Z M 38.867188 89.644531 L 33.871094 94.820312 L 44.328125 95.011719 Z M 83.632812 95.164062 C 83.394531 95.195312 83.164062 95.273438 82.945312 95.398438 C 82.074219 95.910156 81.773438 97.035156 82.28125 97.910156 L 84.101562 101.082031 C 84.578125 101.976562 85.691406 102.320312 86.585938 101.84375 C 87.484375 101.367188 87.824219 100.253906 87.347656 99.359375 C 87.328125 99.320312 87.308594 99.28125 87.289062 99.246094 L 85.453125 96.0625 C 85.070312 95.40625 84.34375 95.074219 83.632812 95.164062 Z M 75.476562 98.75 C 75.238281 98.71875 74.996094 98.726562 74.75 98.789062 C 74.746094 98.792969 74.742188 98.789062 74.742188 98.789062 C 73.761719 99.050781 73.175781 100.0625 73.4375 101.042969 C 73.4375 101.046875 73.4375 101.050781 73.441406 101.054688 L 74.390625 104.605469 C 74.691406 105.574219 75.726562 106.113281 76.691406 105.808594 C 77.605469 105.523438 78.148438 104.589844 77.941406 103.65625 L 76.992188 100.105469 C 76.800781 99.371094 76.183594 98.855469 75.476562 98.75 Z M 75.476562 98.75 "/>
</g>
</svg>
