<svg width="52" height="52" viewBox="0 0 52 52" fill="none" xmlns="http://www.w3.org/2000/svg">
<path d="M47.9224 24.5706V28.7331C47.9224 29.8546 48.8313 30.7639 49.9529 30.7639C51.0744 30.7639 51.9833 29.8546 51.9833 28.7331V16.3504C51.9833 11.8717 48.3398 8.22775 43.8611 8.22775H35.122V5.58038C35.122 2.50336 32.6186 0 29.5416 0H22.4417C19.3647 0 16.8614 2.50336 16.8614 5.58038V8.22775H8.12222C3.64355 8.22775 0 11.8713 0 16.35V40.0065C0 44.4852 3.64355 48.1291 8.12222 48.1291H25.2811C26.4027 48.1291 27.3116 47.2198 27.3116 46.0983C27.3116 44.9771 26.4027 44.0678 25.2811 44.0678H8.12222C5.88309 44.0678 4.06131 42.246 4.06131 40.0065V24.5706H24.0628V27.6202C24.0628 28.7414 24.9717 29.6507 26.0932 29.6507C27.2148 29.6507 28.1237 28.7414 28.1237 27.6202V24.5706H47.9224ZM20.9227 5.58038C20.9227 4.74289 21.6042 4.06131 22.4417 4.06131H29.5416C30.3791 4.06131 31.0607 4.74249 31.0607 5.58038V8.22775H20.9227V5.58038ZM4.06131 16.3504C4.06131 14.1108 5.88309 12.2891 8.12222 12.2891H43.8611C46.1003 12.2891 47.9224 14.1108 47.9224 16.3504V20.5093H4.06131V16.3504ZM51.4053 48.5171L46.7275 43.8393C47.6126 42.4325 48.1252 40.769 48.1252 38.9877C48.1252 33.9492 44.0262 29.8499 38.9877 29.8499C33.9492 29.8499 29.8499 33.9492 29.8499 38.9877C29.8499 44.0262 33.9492 48.1255 38.9877 48.1255C40.7773 48.1255 42.4484 47.6078 43.8595 46.7148L48.5334 51.3886C48.9301 51.7854 49.4498 51.9837 49.9695 51.9837C50.4893 51.9837 51.0086 51.7854 51.4053 51.3886C52.1984 50.5956 52.1984 49.3102 51.4053 48.5171ZM33.9112 38.9877C33.9112 36.1884 36.1884 33.9112 38.9877 33.9112C41.7866 33.9112 44.0642 36.1884 44.0642 38.9877C44.0642 41.787 41.7866 44.0642 38.9877 44.0642C36.1884 44.0642 33.9112 41.7866 33.9112 38.9877Z" fill="#0DBD68"/>
</svg>
